<?xml version="1.0" standalone="no"?>
<!DOCTYPE svg PUBLIC "-//W3C//DTD SVG 20010904//EN"
 "http://www.w3.org/TR/2001/REC-SVG-20010904/DTD/svg10.dtd">
<svg version="1.0" xmlns="http://www.w3.org/2000/svg"
 width="512.000000pt" height="512.000000pt" viewBox="0 0 512.000000 512.000000"
 preserveAspectRatio="xMidYMid meet">
<metadata>
Created by potrace 1.16, written by Peter Selinger 2001-2019
</metadata>
<g transform="translate(0.000000,512.000000) scale(0.100000,-0.100000)"
fill="#fff" stroke="none">
<path d="M2284 5104 c-763 -104 -1253 -624 -1434 -1524 -65 -321 -91 -626 -91
-1065 1 -781 85 -1291 281 -1691 84 -170 167 -290 281 -403 237 -237 530 -369
911 -410 138 -15 463 -13 589 4 373 49 658 180 901 413 331 318 524 779 602
1437 28 242 37 409 37 732 -1 936 -121 1509 -405 1923 -28 41 -96 120 -151
176 -231 232 -505 360 -880 409 -145 19 -499 18 -641 -1z m586 -205 c330 -37
581 -150 785 -354 220 -220 366 -559 435 -1010 49 -324 71 -759 58 -1179 -17
-583 -103 -1006 -277 -1361 -243 -495 -652 -756 -1228 -784 -428 -20 -757 52
-1007 222 -84 57 -209 179 -277 270 -268 359 -390 928 -390 1815 0 326 9 493
42 740 116 897 470 1416 1086 1593 207 59 508 78 773 48z"/>
<path d="M2450 4351 c-425 -61 -633 -395 -700 -1126 -16 -181 -14 -228 14
-258 50 -54 144 -40 170 26 7 18 18 104 25 192 23 292 67 498 142 655 104 218
231 302 464 304 88 0 125 -4 182 -22 231 -72 345 -320 409 -882 22 -194 31
-988 15 -1227 -41 -576 -163 -886 -393 -993 -158 -74 -392 -59 -522 34 -58 41
-119 120 -158 203 -66 146 -119 408 -138 682 -6 86 -14 176 -17 200 -11 96
-110 136 -175 70 l-31 -31 6 -151 c20 -477 118 -851 276 -1043 216 -265 717
-299 993 -67 187 157 297 434 354 893 22 180 31 961 15 1234 -37 597 -134 939
-321 1126 -86 87 -162 131 -277 160 -87 23 -250 33 -333 21z"/>
<path d="M1759 2661 c-39 -39 -41 -109 -5 -146 32 -32 85 -41 124 -21 40 20
54 48 54 100 -1 88 -110 130 -173 67z"/>
</g>
</svg>
