<?xml version="1.0" standalone="no"?>
<!DOCTYPE svg PUBLIC "-//W3C//DTD SVG 20010904//EN"
 "http://www.w3.org/TR/2001/REC-SVG-20010904/DTD/svg10.dtd">
<svg version="1.0" xmlns="http://www.w3.org/2000/svg"
 width="512.000000pt" height="512.000000pt" viewBox="0 0 512.000000 512.000000"
 preserveAspectRatio="xMidYMid meet">
<metadata>
Created by potrace 1.16, written by Peter Selinger 2001-2019
</metadata>
<g transform="translate(0.000000,512.000000) scale(0.100000,-0.100000)"
fill="#fff" stroke="none">
<path d="M2300 5106 c-30 -6 -68 -19 -85 -28 -71 -38 -1104 -712 -1147 -748
-88 -76 -118 -176 -118 -405 0 -346 59 -469 225 -468 90 1 155 30 511 226 177
97 324 177 328 177 3 0 6 -221 6 -490 0 -539 0 -535 59 -560 41 -17 92 -6 122
26 l24 26 0 615 0 615 -33 29 c-40 36 -76 37 -140 5 -26 -13 -209 -114 -408
-224 -352 -194 -448 -242 -461 -228 -22 22 -31 338 -12 426 9 44 17 55 62 89
29 21 288 190 575 376 l524 338 166 7 c173 7 480 -1 500 -14 9 -5 12 -494 12
-2031 0 -1548 3 -2030 12 -2050 24 -54 32 -55 481 -55 l414 0 12 -26 c42 -93
39 -420 -4 -505 l-16 -29 -1343 0 c-1063 0 -1346 3 -1353 12 -30 37 -38 98
-38 273 0 150 3 188 18 227 l18 47 480 3 479 3 27 28 28 27 0 616 0 616 -33
29 c-37 33 -77 37 -122 14 -16 -8 -34 -24 -40 -34 -6 -13 -10 -207 -10 -555
l0 -536 -425 0 c-362 0 -431 -2 -463 -15 -47 -20 -77 -49 -109 -102 -41 -71
-54 -137 -60 -310 -9 -255 20 -393 100 -480 23 -25 55 -47 76 -53 24 -8 484
-10 1447 -8 l1411 3 37 29 c99 75 131 186 131 456 0 200 -9 256 -53 349 -30
61 -76 103 -131 120 -26 7 -158 11 -400 11 l-361 0 0 1978 c0 1411 -3 1988
-11 2017 -16 55 -73 109 -139 131 -48 15 -99 18 -385 20 -237 2 -345 0 -385
-10z"/>
<path d="M2068 2544 c-34 -18 -48 -43 -48 -84 0 -71 55 -119 123 -106 51 10
82 48 82 103 0 38 -5 49 -33 74 -36 33 -80 37 -124 13z"/>
</g>
</svg>
