<?xml version="1.0" standalone="no"?>
<!DOCTYPE svg PUBLIC "-//W3C//DTD SVG 20010904//EN"
 "http://www.w3.org/TR/2001/REC-SVG-20010904/DTD/svg10.dtd">
<svg version="1.0" xmlns="http://www.w3.org/2000/svg"
 width="512.000000pt" height="512.000000pt" viewBox="0 0 512.000000 512.000000"
 preserveAspectRatio="xMidYMid meet">
<metadata>
Created by potrace 1.16, written by Peter Selinger 2001-2019
</metadata>
<g transform="translate(0.000000,512.000000) scale(0.100000,-0.100000)"
fill="#fff" stroke="none">
<path d="M2240 5113 c-357 -40 -771 -169 -1023 -320 -44 -26 -109 -75 -145
-107 -118 -110 -144 -199 -143 -491 0 -202 17 -335 50 -409 26 -61 90 -113
145 -121 83 -13 120 1 295 109 191 118 374 197 541 232 129 27 334 25 425 -3
140 -44 235 -130 293 -264 26 -62 27 -70 26 -234 -1 -151 -4 -181 -27 -267
-15 -53 -45 -139 -67 -190 -49 -115 -52 -158 -11 -199 23 -22 39 -29 70 -29
60 0 92 35 140 152 77 187 111 356 112 543 0 155 -19 246 -77 363 -145 296
-464 413 -914 336 -180 -31 -397 -121 -623 -258 -70 -42 -131 -75 -136 -72
-29 18 -45 415 -21 532 11 52 19 66 69 115 127 124 541 289 876 348 188 34
492 43 671 21 268 -33 517 -122 691 -246 194 -139 335 -353 393 -597 51 -214
42 -548 -22 -802 -75 -302 -290 -664 -638 -1074 -151 -178 -218 -248 -723
-766 -247 -253 -454 -471 -459 -485 -12 -32 4 -90 33 -116 20 -18 54 -19 1003
-24 l981 -5 18 -36 c28 -58 43 -247 29 -374 -6 -57 -18 -121 -26 -140 l-15
-36 -1438 3 c-1579 3 -1477 -1 -1514 63 -27 45 -42 192 -34 329 10 179 37 260
122 373 22 29 255 283 519 564 591 632 564 601 564 648 0 71 -73 123 -139 100
-17 -6 -224 -219 -548 -567 -287 -306 -532 -571 -547 -588 -53 -64 -117 -181
-141 -257 -45 -140 -56 -437 -23 -592 26 -120 87 -203 183 -247 l50 -23 1503
-3 c1372 -2 1505 -1 1535 14 44 23 86 63 107 104 66 131 77 498 20 684 -26 84
-101 167 -165 185 -27 7 -306 11 -885 11 l-845 0 231 233 c358 361 549 560
678 707 375 426 630 823 735 1145 93 284 121 708 66 981 -120 589 -586 967
-1287 1043 -91 10 -459 13 -538 4z"/>
<path d="M2359 2601 c-57 -57 -29 -159 48 -174 105 -20 170 103 95 178 -37 37
-103 35 -143 -4z"/>
</g>
</svg>
