<?xml version="1.0" standalone="no"?>
<!DOCTYPE svg PUBLIC "-//W3C//DTD SVG 20010904//EN"
 "http://www.w3.org/TR/2001/REC-SVG-20010904/DTD/svg10.dtd">
<svg version="1.0" xmlns="http://www.w3.org/2000/svg"
 width="512.000000pt" height="512.000000pt" viewBox="0 0 512.000000 512.000000"
 preserveAspectRatio="xMidYMid meet">
<metadata>
Created by potrace 1.16, written by Peter Selinger 2001-2019
</metadata>
<g transform="translate(0.000000,512.000000) scale(0.100000,-0.100000)"
fill="#fff" stroke="none">
<path d="M2230 5114 c-314 -37 -614 -121 -845 -236 -215 -107 -335 -208 -375
-315 -40 -107 -50 -423 -19 -586 22 -118 83 -186 177 -195 66 -6 113 9 222 73
498 292 854 362 1149 225 35 -17 72 -30 83 -30 28 0 76 27 88 49 17 32 12 96
-9 123 -25 31 -134 82 -237 109 -106 29 -347 31 -477 6 -184 -37 -442 -144
-664 -276 -56 -34 -107 -61 -112 -61 -18 0 -26 72 -25 245 1 248 11 273 156
366 213 136 530 243 843 284 160 21 474 21 623 0 336 -47 576 -157 755 -344
90 -94 147 -187 193 -316 46 -130 64 -241 64 -404 0 -535 -252 -895 -722
-1032 -98 -28 -123 -52 -123 -120 0 -79 23 -95 191 -128 329 -66 567 -217 724
-457 94 -143 139 -293 147 -484 21 -493 -204 -905 -627 -1148 -301 -172 -647
-252 -1096 -253 -111 0 -241 5 -290 11 -326 39 -623 124 -806 231 -80 47 -102
73 -120 142 -17 67 -19 450 -2 467 9 9 35 -1 104 -35 211 -106 471 -194 680
-231 132 -23 456 -26 570 -5 117 21 262 73 351 127 106 64 213 176 262 276
114 230 97 551 -40 757 -138 209 -363 332 -708 387 -69 11 -202 17 -432 21
l-332 6 -13 36 c-18 50 -18 363 0 412 l13 36 307 6 c330 5 419 15 567 64 148
48 249 107 342 200 140 141 173 261 83 308 -65 34 -110 15 -164 -68 -91 -141
-229 -225 -451 -272 -62 -14 -155 -19 -415 -24 -379 -7 -373 -6 -437 -89 -50
-66 -72 -173 -73 -357 0 -248 40 -376 137 -437 37 -23 43 -23 393 -29 356 -7
437 -14 585 -51 156 -39 295 -115 376 -206 135 -152 167 -410 74 -598 -65
-133 -202 -230 -393 -281 -88 -24 -115 -26 -292 -27 -213 0 -286 10 -480 66
-130 37 -266 91 -432 169 -70 34 -146 63 -168 66 -55 8 -121 -19 -164 -67 -55
-61 -68 -118 -73 -326 -10 -349 36 -499 181 -593 219 -143 578 -251 965 -292
152 -16 591 -6 731 16 263 41 459 99 655 195 176 85 292 166 426 300 211 211
327 425 390 719 30 143 37 397 15 531 -69 408 -334 736 -728 900 l-76 32 86
58 c251 168 410 411 484 740 20 93 23 131 23 325 0 240 -9 304 -65 471 -144
424 -502 698 -1040 796 -95 17 -163 21 -385 23 -148 2 -286 1 -305 -1z"/>
<path d="M2795 3856 c-28 -29 -40 -66 -31 -102 19 -76 120 -102 177 -45 23 23
29 38 29 71 0 61 -41 100 -105 100 -35 0 -51 -6 -70 -24z"/>
</g>
</svg>
