<?xml version="1.0" standalone="no"?>
<!DOCTYPE svg PUBLIC "-//W3C//DTD SVG 20010904//EN"
 "http://www.w3.org/TR/2001/REC-SVG-20010904/DTD/svg10.dtd">
<svg version="1.0" xmlns="http://www.w3.org/2000/svg"
 width="1300.000000pt" height="1300.000000pt" viewBox="0 0 1300.000000 1300.000000"
 preserveAspectRatio="xMidYMid meet">
<metadata>
Created by potrace 1.16, written by Peter Selinger 2001-2019
</metadata>
<g transform="translate(0.000000,1300.000000) scale(0.100000,-0.100000)"
fill="#fff" stroke="none">
<path d="M5500 9978 c-376 -37 -697 -333 -776 -715 -11 -50 -16 -147 -17 -330
l-2 -258 -680 -5 c-660 -5 -682 -6 -755 -27 -322 -93 -557 -332 -642 -653
l-23 -85 0 -1145 0 -1145 23 -85 c66 -250 238 -466 460 -579 l42 -21 0 -511
c0 -554 -1 -543 56 -588 41 -32 96 -44 147 -31 37 10 98 67 572 545 l530 534
860 -9 c473 -5 1173 -10 1555 -12 694 -3 695 -3 775 19 347 98 604 379 660
725 10 65 15 168 15 341 l0 247 133 0 132 0 525 -526 c289 -289 538 -532 554
-541 41 -21 123 -13 166 17 18 13 41 41 51 64 17 38 19 74 19 489 0 356 -3
447 -12 441 -9 -6 -9 -3 0 9 9 10 12 31 9 57 l-4 40 63 35 c215 120 372 321
436 557 l23 83 0 1160 c0 1099 -1 1164 -19 1228 -29 107 -63 185 -121 272
-137 206 -328 338 -569 392 -63 14 -242 16 -1573 18 -1024 2 -1501 -1 -1496
-8 4 -6 1 -7 -8 -2 -16 10 -1012 13 -1109 3z m4125 -333 c107 -23 189 -68 276
-155 80 -79 123 -149 156 -256 17 -56 18 -120 18 -1159 0 -1220 4 -1138 -66
-1276 -57 -114 -197 -237 -312 -275 -66 -21 -110 -54 -131 -97 -14 -31 -16
-82 -16 -399 l0 -363 -408 412 c-290 294 -418 417 -445 428 -31 13 -74 16
-215 14 l-177 -2 -6 694 c-6 743 -6 744 -59 879 -107 273 -323 469 -607 552
l-78 23 -1263 3 -1263 2 3 263 c3 255 4 264 30 336 71 195 226 334 421 376 97
21 4042 21 4142 0z m-2146 -1305 c233 -38 424 -211 476 -432 22 -96 22 -2205
0 -2293 -27 -107 -72 -184 -154 -265 -84 -83 -161 -129 -259 -155 -77 -19 22
-19 -1788 -4 -1121 10 -1427 10 -1451 0 -16 -6 -213 -196 -439 -422 l-409
-410 -5 375 c-5 355 -6 376 -25 401 -21 29 -40 39 -175 103 -135 64 -248 193
-296 339 -18 56 -19 101 -19 1193 l0 1135 33 76 c87 203 260 335 467 359 101
12 3972 11 4044 0z"/>
<path d="M3599 7797 c-102 -68 -107 -209 -9 -273 l36 -24 1841 0 c1151 0 1850
4 1865 10 60 24 98 83 98 153 0 52 -29 100 -79 134 l-34 23 -1842 0 -1842 0
-34 -23z"/>
<path d="M3655 6982 c-49 -10 -87 -37 -112 -79 -44 -75 -24 -162 51 -217 l27
-21 1848 -3 1848 -2 33 22 c50 34 72 71 78 126 6 64 -24 120 -81 152 l-40 23
-1816 2 c-999 1 -1825 0 -1836 -3z"/>
<path d="M3610 6128 c-65 -34 -85 -67 -85 -143 0 -69 15 -99 69 -139 l27 -21
1842 -2 1842 -3 39 23 c62 35 81 68 81 140 0 75 -27 120 -89 148 -38 17 -77
19 -607 19 -438 0 -568 -3 -578 -12 -11 -10 -13 -10 -7 0 6 9 -245 12 -1241
12 l-1249 0 -44 -22z"/>
</g>
</svg>
