<?xml version="1.0" standalone="no"?>
<!DOCTYPE svg PUBLIC "-//W3C//DTD SVG 20010904//EN"
 "http://www.w3.org/TR/2001/REC-SVG-20010904/DTD/svg10.dtd">
<svg version="1.0" xmlns="http://www.w3.org/2000/svg"
 width="1250.000000pt" height="1250.000000pt" viewBox="0 0 1250.000000 1250.000000"
 preserveAspectRatio="xMidYMid meet">
  <metadata>
  Created by potrace 1.16, written by Peter Selinger 2001-2019
  </metadata>
  <g transform="translate(0.000000,1250.000000) scale(0.100000,-0.100000)"
  fill="#c9c9c9" stroke="none">
    <path d="M4552 6098 l-1600 -2773 3195 -3 c1758 -1 3198 0 3201 2 2 3 -706
    1235 -1574 2738 -868 1503 -1587 2750 -1599 2771 l-22 37 -1601 -2772z m1727
    1116 c146 -43 203 -186 203 -504 -1 -187 -101 -1379 -128 -1515 -21 -107 -48
    -168 -94 -209 -46 -42 -110 -55 -173 -36 -78 23 -115 76 -146 212 -26 111 -26
    109 -71 788 -50 747 -57 916 -40 995 29 138 115 238 240 276 43 13 154 10 209
    -7z m7 -2689 c140 -62 220 -211 193 -359 -14 -77 -37 -121 -91 -172 -75 -73
    -118 -89 -233 -89 -84 0 -107 4 -146 23 -72 35 -125 87 -156 150 -24 49 -28
    69 -28 142 0 71 4 94 27 142 27 59 91 128 143 156 83 44 201 47 291 7z"/>
  </g>
</svg>
