<?xml version="1.0" standalone="no"?>
<!DOCTYPE svg PUBLIC "-//W3C//DTD SVG 20010904//EN"
 "http://www.w3.org/TR/2001/REC-SVG-20010904/DTD/svg10.dtd">
<svg version="1.0" xmlns="http://www.w3.org/2000/svg"
 width="798.000000pt" height="980.000000pt" viewBox="0 0 798.000000 980.000000"
 preserveAspectRatio="xMidYMid meet">
  <metadata>
  Created by potrace 1.16, written by Peter Selinger 2001-2019
  </metadata>
  <g transform="translate(0.000000,980.000000) scale(0.100000,-0.100000)"
  fill="#000" stroke="none">
    <path d="M3725 9790 c-1054 -109 -1866 -823 -2110 -1855 -66 -280 -75 -416
    -75 -1167 l0 -646 -257 -5 c-272 -5 -304 -9 -466 -66 -334 -117 -628 -416
    -742 -755 -64 -190 -59 -15 -62 -2186 -4 -2156 -6 -2064 53 -2251 116 -370
    411 -671 778 -794 192 -64 -81 -59 3081 -63 1927 -2 2900 0 2960 7 373 43 699
    251 903 574 62 98 113 219 150 355 l27 97 3 1980 c3 2181 6 2077 -59 2268
    -142 427 -511 746 -948 822 -56 10 -155 15 -302 15 l-219 0 0 643 c0 761 -9
    900 -76 1177 -112 460 -329 847 -658 1175 -353 352 -809 577 -1331 656 -151
    23 -507 33 -650 19z m557 -625 c290 -44 558 -150 788 -313 122 -86 317 -281
    400 -400 206 -295 320 -617 350 -992 7 -83 10 -368 8 -735 l-3 -600 -1835 0
    -1835 0 0 675 c0 595 2 689 18 793 135 896 748 1499 1612 1587 117 12 374 4
    497 -15z m2668 -3687 c197 -72 338 -229 390 -434 20 -76 20 -119 20 -1978 0
    -2106 4 -1972 -66 -2116 -52 -106 -170 -223 -276 -274 -149 -71 89 -67 -3060
    -64 -2351 3 -2850 6 -2883 17 -227 76 -395 255 -440 467 -22 104 -22 3825 0
    3928 28 131 105 258 207 343 63 52 177 111 250 129 43 10 617 12 2918 11
    l2865 -2 75 -27z"/>
    <path d="M3898 4280 c-203 -36 -368 -158 -457 -337 -47 -95 -64 -180 -58 -298
    5 -115 29 -198 85 -289 40 -67 135 -167 181 -190 l30 -16 3 -538 3 -537 28
    -57 c116 -237 438 -237 554 0 l28 57 3 535 4 535 50 35 c27 19 74 63 103 98
    223 266 187 649 -82 873 -55 46 -166 101 -235 118 -67 16 -184 21 -240 11z"/>
  </g>
</svg>
