<?xml version="1.0" standalone="no"?>
<!DOCTYPE svg PUBLIC "-//W3C//DTD SVG 20010904//EN"
 "http://www.w3.org/TR/2001/REC-SVG-20010904/DTD/svg10.dtd">
<svg version="1.0" xmlns="http://www.w3.org/2000/svg"
 width="512.000000pt" height="512.000000pt" viewBox="0 0 512.000000 512.000000"
 preserveAspectRatio="xMidYMid meet">
<metadata>
Created by potrace 1.16, written by Peter Selinger 2001-2019
</metadata>
<g transform="translate(0.000000,512.000000) scale(0.100000,-0.100000)"
fill="#fff" stroke="none">
<path d="M0 3660 l0 -1460 1137 2 1136 3 488 1450 c269 798 489 1453 489 1458
0 4 -731 7 -1625 7 l-1625 0 0 -1460z m1293 155 c49 -330 91 -602 93 -604 2
-2 7 -1 10 2 4 4 49 275 101 604 52 329 96 599 98 602 5 4 276 -36 281 -42 1
-1 -49 -326 -112 -722 -62 -396 -114 -726 -114 -733 0 -10 -55 -12 -257 -10
l-258 3 -108 728 c-60 401 -106 731 -103 734 7 8 227 42 256 40 l24 -2 89
-600z"/>
<path d="M2831 2898 c-18 -48 -971 -2887 -971 -2893 0 -3 734 -5 1630 -5
l1630 0 0 1460 0 1460 -1140 0 -1140 0 -9 -22z m1429 -853 l0 -145 -255 0
-255 0 0 -160 0 -160 255 0 255 0 0 -445 0 -445 -400 0 -400 0 0 145 0 145
255 0 255 0 0 155 0 155 -255 0 -255 0 0 450 0 450 400 0 400 0 0 -145z"/>
</g>
</svg>
